<svg viewBox="0 0 800 800" fill="none" xmlns="http://www.w3.org/2000/svg">
    <path d="M200 544.444C211.111 522.222 155.556 488.889 155.556 455.556C155.556 437.767 166.667 388.889 211.111 377.778C230.278 372.982 255.344 361.756 279.622 363.178C385.422 369.439 448.622 395.822 488.844 385.411C499.608 382.633 586.756 296.522 593.011 288.878L631.9 251.033L637.021 292.122C672.21 315.733 677.732 333.322 733.288 377.767C739.429 382.682 718.688 401.9 711.065 399.989C666.621 388.878 622.177 388.878 622.177 388.878C622.177 388.878 601.088 457.578 599.954 477.767C598.696 499.956 599.954 544.433 588.843 555.544C571.277 573.111 555.51 577.767 555.51 577.767C555.51 577.767 577.732 622.211 588.843 644.433C595.874 658.489 592.771 673.833 588.843 677.767C566.621 699.989 499.954 722.211 499.954 722.211L488.843 688.878C488.843 688.878 544.399 666.656 544.399 655.544C544.399 643 499.954 611.1 488.843 588.878C488.843 588.878 415.954 584.408 388.843 577.767C370.066 573.166 310.643 546.689 270.954 528.522C251.166 557.189 224.532 591.967 224.532 599.989L268.977 655.544L246.754 666.656C246.754 666.656 191.199 622.211 180.088 611.1C176.16 607.172 177.961 594.011 180.088 588.878C186.099 574.356 192.954 558.489 199.988 544.433L200 544.444Z" fill="#A57939"/>
    <path d="M266.667 544.444C266.667 544.444 290.478 619.878 300 644.444C309.896 669.956 322.222 733.333 322.222 733.333L275.922 720.367L249.067 665.733L262.956 663.889V635.178L230.556 601.389" fill="#6A462F"/>
    <path d="M177.778 388.889H155.556C155.556 388.889 77.778 422.222 88.889 466.667C96.972 499 134.733 528.7 79.178 584.222C79.178 584.222 71.3 615.711 101.856 606.911C101.856 606.911 128.289 596.613 139.356 561.544C158.8 499.967 121.011 470.622 128.244 448.1C132.411 435.144 154.178 435.6 154.178 435.6" fill="#6A462F"/>
    <path d="M563.556 579.111L575.711 611.756C582.656 614.187 624.844 628.811 623.278 641.967C620.848 662.456 633.348 722.178 633.348 722.178L655.57 733.289C655.57 733.289 677.792 644.4 677.792 633.289C677.792 624.511 677.792 611.067 666.681 599.956C655.57 588.844 600.014 555.511 600.014 555.511" fill="#6A462F"/>
    <path d="M322 504.148L337.5 516.5L356.283 525.918L396.031 532.5H454.5L463 525.918L466.5 504.148L473.5 453.5V387.701H466.5L454.5 387.702L438.5 385L405.472 378.081L356.283 371.5L346.5 370L332.5 368L322 504.148Z" fill="currentColor"/>
    <path d="M500 388.889C511.111 377.778 538.344 339.444 566.667 311.111C577.778 300 600 288.889 600 288.889L622.222 255.556" stroke="black" stroke-width="22.2222" stroke-miterlimit="10" stroke-linecap="round" stroke-linejoin="round"/>
    <path d="M288.889 444.444C288.889 444.444 300 477.778 288.889 500C275.689 526.411 224.544 588.889 224.544 600L255.556 633.333C255.556 633.333 268.2 641.644 268.044 648.622C267.589 669.922 246.767 666.667 246.767 666.667C246.767 666.667 175.9 604.844 177.778 600C183.452 585.344 192.967 558.5 200 544.444C211.111 522.222 155.556 488.889 155.556 455.556C155.556 437.767 166.667 388.889 211.111 377.778C230.278 372.982 253.033 372.32 277.311 373.904" stroke="black" stroke-width="22.2222" stroke-miterlimit="10" stroke-linecap="round" stroke-linejoin="round"/>
    <path d="M533.333 711.111C553.333 702.669 577.3 689.367 588.889 677.778C592.817 673.85 595.92 658.5 588.889 644.444L555.556 577.778C555.556 577.778 571.322 573.123 588.889 555.556C600 544.444 598.741 499.967 600 477.778C601.139 457.589 622.222 388.889 622.222 388.889C622.222 388.889 666.667 388.889 711.111 400C718.728 401.91 739.478 382.689 733.333 377.778C677.778 333.333 677.778 333.333 644.444 311.111M533.333 711.106C533.333 711.106 528.133 715.587 521.756 721.056C515.378 726.524 504.248 724.864 496.978 717.356C489.73 709.844 489.936 697.862 497.444 690.733C504.97 683.616 511.111 677.778 511.111 677.778C526.344 670.467 544.444 655.556 544.444 655.556C544.444 655.556 533.333 633.333 488.889 588.889C488.889 588.889 416 584.419 388.889 577.778C359.833 570.656 277.778 533.333 277.778 533.333" stroke="black" stroke-width="22.2222" stroke-miterlimit="10" stroke-linecap="round" stroke-linejoin="round"/>
    <path d="M266.667 544.444C266.667 544.444 290.478 619.878 300 644.444C305.23 657.922 306.869 665.8 317.133 688.422C326.291 708.6 327.246 711.956 327.246 711.956C330.599 723.722 325.836 735.822 316.667 738.889C307.498 741.956 295.556 735.482 290.122 724.533L278.467 701.044" stroke="black" stroke-width="22.2222" stroke-miterlimit="10" stroke-linecap="round" stroke-linejoin="round"/>
    <path d="M600 555.556C600 555.556 655.556 588.889 666.667 600C677.778 611.111 677.778 624.556 677.778 633.333C677.778 639.084 672.407 665.044 666.667 689.356V716.033C666.667 725.553 659.169 733.333 650 733.333C640.831 733.333 633.333 723.333 633.333 711.111L633.333 644.444" stroke="black" stroke-width="22.2222" stroke-miterlimit="10" stroke-linecap="round" stroke-linejoin="round"/>
    <path d="M455 526C455 526 372.587 530.272 351.33 525.718C330.074 521.164 317.664 516.608 317.162 507.911C316.832 502.213 332.554 397.314 326.206 376.046" stroke="black" stroke-width="22.2222" stroke-miterlimit="10" stroke-linecap="round" stroke-linejoin="round"/>
    <path d="M181.333 389.222L155.5 395C155.5 395 77.778 422.2 88.889 466.644C96.972 498.978 144.444 533.311 88.889 588.866" stroke="black" stroke-width="22.2222" stroke-miterlimit="10" stroke-linecap="round" stroke-linejoin="round"/>
    <path d="M482.415 192.443C464.256 190.987 450.716 175.085 452.172 156.927C453.629 138.767 469.53 125.227 487.689 126.683C505.848 128.14 519.389 144.041 517.932 162.201C516.476 180.359 500.575 193.899 482.415 192.443Z" fill="#FCEA2B"/>
    <path d="M409.603 320.018L395.863 352.356L464.014 446.996L463.018 472.846L406.381 556.795L373.165 535.755L403.896 449.738L314.781 390.441L296.183 344.362L401.56 215.526L453.531 228.699L441.204 293.705L520.164 331.323C520.164 331.323 509.639 349.637 497.346 346.562C485.052 343.485 431.752 330.503 419.046 315.202L409.603 320.018Z" fill="#FCEA2B"/>
    <path d="M482.415 192.443C464.256 190.987 450.716 175.085 452.172 156.927C453.629 138.767 469.53 125.227 487.689 126.683C505.848 128.14 519.389 144.041 517.932 162.201C516.476 180.359 500.575 193.899 482.415 192.443Z" stroke="black" stroke-width="22.2222" stroke-miterlimit="10"/>
    <path d="M509.283 328.012L454.34 307.435C442.894 303.148 437.036 290.281 441.327 278.834L454.102 244.7C458.394 233.253 452.278 221.154 440.529 217.806L428.779 214.459C417.03 211.111 401.074 216.111 393.337 225.576L310.255 327.16C302.519 336.619 299.923 353.632 304.501 364.972L306.462 369.831C311.04 381.171 323.11 395.986 333.278 402.756L391.523 441.498C401.691 448.268 405.369 462.671 399.69 473.482L375.398 519.712C369.719 530.524 373.182 545.051 383.097 551.974C393.024 558.899 406.734 556.275 413.566 546.145L450.591 491.269C457.423 481.138 463.246 467.028 463.521 459.922C463.787 452.812 458.166 438.886 451.026 428.963L408.85 370.39C401.711 360.466 398.95 345.082 402.733 336.187C406.516 327.292 409.603 320.018 409.603 320.018" stroke="black" stroke-width="22.2222" stroke-miterlimit="10" stroke-linecap="round" stroke-linejoin="round"/>
</svg>
