<svg viewBox="0 0 800 800" fill="none" xmlns="http://www.w3.org/2000/svg">
    <path d="M179.5 609C180.817 622.787 186.604 662.394 197.5 686L167 696C167 696 148.396 650.606 137.5 627C130.605 612.069 134.886 598.113 137.5 593.5C152.289 567.439 186.266 538.057 186.266 538.057L210 550.5L215.5 581.5C215.5 581.5 178.333 596.787 179.5 609Z" fill="#6A462F"/>
    <path d="M162.445 462C153.191 493.148 189.499 542.311 171.435 558.294C159.661 568.706 140.809 590.053 130.072 601.53C126.52 605.322 169.168 689.139 169.168 689.139C169.168 689.139 187.268 699.935 195.645 680.347C198.396 673.932 189.771 661.5 189.771 661.5L173.453 618.996C177.603 608.69 248.382 569.835 270.491 550.266" stroke="black" stroke-width="22.2222" stroke-miterlimit="10" stroke-linecap="round" stroke-linejoin="round"/>
    <path d="M544.399 655.544C544.399 643 499.954 611.1 488.843 588.878L555.51 577.767C555.51 577.767 577.732 622.211 588.843 644.433C595.874 658.489 592.771 673.833 588.843 677.767C566.621 699.989 499.954 722.211 499.954 722.211L488.843 688.878C488.843 688.878 544.399 666.656 544.399 655.544Z" fill="#6A462F"/>
    <path d="M184.676 395.564L163.324 389.409C163.324 389.409 79.356 399.893 77.7213 445.677C76.532 478.984 104.589 517.981 35.8284 555.942C35.8284 555.942 19.5364 584.017 51.3344 584.025C51.3344 584.025 79.5856 581.452 99.9334 550.821C135.673 497.039 107.491 458.375 120.679 438.738C128.272 427.443 149.061 433.91 149.061 433.91" fill="#6A462F"/>
    <path d="M388.843 577.767C370.066 573.166 310.643 546.689 270.954 528.522L248 371.5C339.5 364.5 448.622 395.822 488.844 385.411C499.608 382.633 586.756 296.522 593.011 288.878L631.9 251.033L637.021 292.122C672.21 315.733 677.732 333.322 733.288 377.767C739.429 382.682 718.688 401.9 711.065 399.989C666.621 388.878 622.177 388.878 622.177 388.878C622.177 388.878 601.088 457.578 599.954 477.767C598.696 499.956 599.954 544.433 588.843 555.544C571.277 573.111 555.51 577.767 555.51 577.767L488.843 588.878C488.843 588.878 415.954 584.408 388.843 577.767Z" fill="#A57939"/>
    <path d="M214.345 620.878C217.313 605.335 220.855 588.291 224.993 572.986L225.008 572.995C231.541 548.801 166.146 527.944 158.593 495.216C154.562 477.749 148.244 423.907 192 403.5C210.869 394.695 241.233 381.792 266.833 378L286.5 541.5C272.393 573.876 261.319 614.414 263.137 622.29L329.5 678.5L301.38 683C301.38 683 233.467 651.233 219.381 642.697C214.401 639.68 213.294 626.373 214.345 620.878Z" fill="#A57939"/>
    <path d="M549 575L579 603.5C585.945 605.931 624.844 628.811 623.278 641.967C620.848 662.456 633.348 722.178 633.348 722.178L655.57 733.289C655.57 733.289 677.792 644.4 677.792 633.289C677.792 624.511 677.792 611.067 666.681 599.956C655.57 588.844 587 547 587 547" fill="#A57939"/>
    <path d="M322 504.148L337.5 516.5L356.283 525.918L396.031 532.5H454.5L463 525.918L466.5 504.148L473.5 453.5V387.701H466.5L454.5 387.702L427.5 384.5L405.472 378.081L356.283 371.5L346.5 370L332.5 368L322 504.148Z" fill="currentColor"/>
    <path d="M500 388.889C511.111 377.778 538.344 339.444 566.667 311.111C577.778 300 600 288.889 600 288.889L622.222 255.556" stroke="black" stroke-width="22.2222" stroke-miterlimit="10" stroke-linecap="round" stroke-linejoin="round"/>
    <path d="M281.061 445.639C281.061 445.639 299.26 475.696 293.332 499.823C286.291 528.497 250.209 600.729 252.663 611.565L290.272 637.225C290.272 637.225 326.111 664.837 327.5 671.677C331.761 692.552 311 690.5 311 690.5C311 690.5 206.291 627.034 207.053 621.895C209.349 606.347 212.7 578.065 216.455 562.802C222.383 538.675 160.838 518.436 153.475 485.926C149.546 468.577 149.587 418.452 190.479 397.799C208.114 388.888 230.16 383.216 254.189 379.398" stroke="black" stroke-width="22.2222" stroke-miterlimit="10" stroke-linecap="round" stroke-linejoin="round"/>
    <path d="M543 586L588.889 644.444C595.92 658.5 592.817 673.85 588.889 677.778C577.3 689.367 553.333 702.669 533.333 711.111M541 659C541 659 504.97 683.616 497.444 690.733C489.936 697.862 489.73 709.844 496.978 717.356C504.248 724.864 515.378 726.524 521.756 721.056C528.133 715.587 533.333 711.106 533.333 711.106" stroke="black" stroke-width="22.2222" stroke-miterlimit="10" stroke-linecap="round" stroke-linejoin="round"/>
    <path d="M455 526C455 526 372.587 530.272 351.33 525.718C330.074 521.164 317.664 516.608 317.162 507.911C316.832 502.213 332.554 397.314 326.206 376.046" stroke="black" stroke-width="22.2222" stroke-miterlimit="10" stroke-linecap="round" stroke-linejoin="round"/>
    <path d="M188 396.869L159.452 393.612C159.452 393.612 79.3622 399.872 77.7278 445.655C76.5382 478.963 112.643 525.102 43.8731 563.095" stroke="black" stroke-width="22.2222" stroke-miterlimit="10" stroke-linecap="round" stroke-linejoin="round"/>
    <path d="M479 587.626C479 587.626 522.513 594.364 549 578M489 589C489 589 419.947 584.494 394.263 577.8C366.736 570.621 289 533 289 533M601.197 552C601.197 539.5 600.498 501.607 601.197 479.394C601.827 459.182 621.173 389.973 621.173 389.973C621.173 389.973 665.604 388.854 710.314 398.841C717.976 400.559 738.236 380.821 731.969 376.067L731.968 376.066C675.312 333.035 675.312 333.035 641.429 311.66M553 578C601.324 607.19 630 637 630 637M605 554.5C605 554.5 659.286 589.134 671.143 600.178C683 611.223 683 624.587 683 633.312C683 639.029 677.268 664.833 671.143 689M630 689V711C630 723.1 639.222 733 650.5 733C661.778 733 671 725.298 671 715.873V689.462M630 640V689.445" stroke="black" stroke-width="22.2222" stroke-miterlimit="10" stroke-linecap="round" stroke-linejoin="round"/>
    <path d="M462.492 175.971C444.275 175.971 429.507 161.203 429.507 142.986C429.507 124.768 444.275 110 462.492 110C480.71 110 495.478 124.768 495.478 142.986C495.478 161.203 480.71 175.971 462.492 175.971Z" fill="#FCEA2B"/>
    <path d="M400.111 308.958L389 342.291L464.499 431.18L465.573 457.027L415.828 545.235L381.036 526.918L404.792 438.719L311.222 386.736L289 342.291L383.741 205.444L436.599 214.42L429.508 280.203L511.222 311.389C511.222 311.389 502.195 330.486 489.695 328.403C477.195 326.319 423.028 317.639 409.139 303.403L400.111 308.958Z" fill="#FCEA2B"/>
    <path d="M462.492 175.971C444.275 175.971 429.507 161.203 429.507 142.986C429.507 124.768 444.275 110 462.492 110C480.71 110 495.478 124.768 495.478 142.986C495.478 161.203 480.71 175.971 462.492 175.971Z" stroke="black" stroke-width="22.2222" stroke-miterlimit="10"/>
    <path d="M500.111 308.958L443.699 292.839C431.947 289.481 425.079 277.123 428.442 265.37L438.447 230.324C441.81 218.571 434.747 206.999 422.768 204.601L410.788 202.204C398.809 199.806 383.303 206.066 376.348 216.119L301.652 324.019C294.697 334.067 293.47 351.233 298.939 362.17L301.283 366.857C306.752 377.795 319.968 391.597 330.645 397.533L391.8 431.495C402.477 437.43 407.295 451.493 402.498 462.724L381.98 510.748C377.183 521.979 381.796 536.183 392.233 542.291C402.682 548.4 416.138 544.689 422.138 534.045L454.658 476.385C460.658 465.74 465.335 451.21 465.041 444.104C464.738 436.996 458.021 423.564 450.111 414.243L403.388 359.229C395.478 349.908 391.496 334.794 394.556 325.625C397.616 316.456 400.111 308.958 400.111 308.958" stroke="black" stroke-width="22.2222" stroke-miterlimit="10" stroke-linecap="round" stroke-linejoin="round"/>
</svg>
