<svg width="632" height="616" viewBox="0 0 632 616" fill="none" xmlns="http://www.w3.org/2000/svg">
    <path d="M150.827 9.17224L169.346 88.8022L110.087 148.061L17.4944 307.32L28.6056 359.172L52.68 373.987L97.1244 372.134L136.013 335.098L211.939 314.728C211.939 314.728 226.753 331.394 236.013 348.061C245.273 364.728 276.754 394.358 276.754 394.358L282.31 461.024L261.94 529.543L239.718 561.024C239.718 561.024 484.162 666.58 608.237 483.247L602.681 416.58L582.311 361.024L545.274 303.617L534.163 286.95L532.311 229.542L500.83 170.283L445.274 136.95L415.644 86.95L358.237 40.6534L286.014 23.9867L223.051 35.0978L176.754 11.0234L150.827 9.17224Z" fill="#A57939"/>
    <path d="M617.007 582.904C606.305 556.409 610.597 520.334 615.392 500.877C618.312 489.03 618.964 476.692 616.923 464.663C600.489 367.856 539.164 296.671 539.164 296.671L534.492 316.75C546.433 244.231 510.549 191.116 510.549 191.116L452.677 145.616L451.371 152.333C426.025 79.48 339.715 41.3067 339.715 41.3067L220.073 39.7933L247.409 84.9667L311.764 108.079L351.011 139.649L376.301 187.564L379.448 241.93L363.704 304.626L360.084 371.671L377.677 424.607C403.465 503.67 464.034 505.544 482.304 504.206L482.709 512.934C482.765 514.126 482.908 515.339 483.172 516.501C494.427 565.837 555.921 597.823 597.137 606.363C610.761 609.188 622.217 595.806 617.007 582.904ZM478.471 435.512C479.216 434.297 479.989 433.039 480.884 431.578C480.037 432.959 479.233 434.269 478.471 435.512ZM476.767 488.112L481.752 492.259L481.905 495.56C480.164 493.081 478.377 490.61 476.767 488.112ZM472.656 444.992C472.014 446.037 471.964 446.12 472.656 444.992ZM472.883 444.621C473.583 443.479 474.861 441.397 476.7 438.399C474.978 441.207 473.651 443.37 472.883 444.621ZM522.859 364.013L498.769 408.619C501.217 402.18 503.864 395.696 506.928 389.118C517.06 372.601 524.127 356.457 528.86 340.958L524.507 359.666C524.153 361.181 523.6 362.643 522.859 364.013ZM483.22 427.767C484.089 426.348 485.025 424.823 486.015 423.211C485.061 424.766 484.132 426.281 483.22 427.767ZM492.087 413.312C493.624 410.804 495.278 408.109 497.029 405.256C495.456 407.82 493.793 410.53 492.087 413.312ZM501.643 397.732C502.324 396.622 503.05 395.439 503.759 394.284C503.133 395.306 502.411 396.481 501.643 397.732Z" fill="#6A462F"/>
    <path d="M533.61 295.646C553.254 321.887 606.333 369.891 600.778 476.07" stroke="black" stroke-width="22.2222" stroke-miterlimit="10" stroke-linecap="round" stroke-linejoin="round"/>
    <path d="M245.222 341.231C245.222 341.231 339.426 416.59 245.222 549.728" stroke="black" stroke-width="22.2222" stroke-miterlimit="10" stroke-linecap="round" stroke-linejoin="round"/>
    <path d="M275.18 218.833C281.279 311.672 171.597 326.644 142.358 333.663C138.663 334.55 135.338 336.441 132.651 339.129L107.954 363.825C104.072 367.708 98.8056 369.89 93.3145 369.89H54.2911C40.9245 369.89 29.0567 361.337 24.83 348.655L18.93 330.954C16.0634 322.354 17.0978 312.93 21.7623 305.157L119.387 142.45L171.873 89.9633L148.372 13.2366C148.372 13.2366 235.068 5.4733 241.856 72.4677C241.856 72.4677 429.946 99.5988 359.112 287.834C359.112 287.834 341.057 353.933 385.501 412.108" stroke="black" stroke-width="22.2222" stroke-miterlimit="10" stroke-linecap="round" stroke-linejoin="round"/>
    <path d="M227.63 31.6255C227.63 31.6255 474.79 -13.05 449.389 253.384" stroke="black" stroke-width="22.2222" stroke-miterlimit="10" stroke-linecap="round" stroke-linejoin="round"/>
    <path d="M438.763 133.115C438.763 133.115 602.836 206.299 499.389 380.004C499.389 380.004 439.667 452.921 506.333 531.162" stroke="black" stroke-width="22.2222" stroke-miterlimit="10" stroke-linecap="round" stroke-linejoin="round"/>
    <path d="M155.408 219.51C167.681 219.51 177.63 209.561 177.63 197.288C177.63 185.015 167.681 175.066 155.408 175.066C143.135 175.066 133.186 185.015 133.186 197.288C133.186 209.561 143.135 219.51 155.408 219.51Z" fill="black"/>
</svg>
