<svg width="800" height="800" viewBox="0 0 800 800" fill="none" xmlns="http://www.w3.org/2000/svg">
    <path d="M179.5 609C180.817 622.787 186.604 662.394 197.5 686L167 696C167 696 148.396 650.606 137.5 627C130.605 612.069 134.886 598.113 137.5 593.5C152.289 567.439 186.266 538.057 186.266 538.057L210 550.5L215.5 581.5C215.5 581.5 178.333 596.787 179.5 609Z" fill="#6A462F"/>
    <path d="M162.445 462C153.191 493.148 189.499 542.311 171.435 558.294C159.661 568.706 140.809 590.053 130.072 601.53C126.52 605.322 169.168 689.139 169.168 689.139C169.168 689.139 187.268 699.935 195.645 680.347C198.396 673.932 189.771 661.5 189.771 661.5L173.453 618.996C177.603 608.69 248.382 569.835 270.491 550.266" stroke="black" stroke-width="22.2222" stroke-miterlimit="10" stroke-linecap="round" stroke-linejoin="round"/>
    <path d="M555.044 647.457C553.773 635.119 515.006 609.282 503.87 588.809L556.047 569.571C556.047 569.571 578.317 610.516 589.452 630.989C596.498 643.938 595.572 659.417 592.83 663.776C577.314 688.404 555.044 709.5 555.044 709.5L522 701C522 701 556.169 658.387 555.044 647.457Z" fill="#6A462F"/>
    <path d="M184.676 395.564L163.324 389.409C163.324 389.409 79.3559 399.893 77.7212 445.677C76.5319 478.984 104.589 517.981 35.8283 555.942C35.8283 555.942 19.5363 584.017 51.3343 584.025C51.3343 584.025 79.5855 581.452 99.9333 550.821C135.673 497.039 107.491 458.375 120.679 438.738C128.272 427.443 149.061 433.91 149.061 433.91" fill="#6A462F"/>
    <path d="M488.843 588.878C488.843 588.878 415.954 584.408 388.843 577.767C370.066 573.166 310.643 546.689 270.954 528.522L248 371.5C339.5 364.5 448.622 395.822 488.844 385.411C499.608 382.633 586.756 296.522 593.011 288.878L631.9 251.033L637.021 292.122C672.21 315.733 677.732 333.322 733.288 377.767C739.429 382.682 718.688 401.9 711.065 399.989C666.621 388.878 622.177 388.878 622.177 388.878C622.177 388.878 601.088 457.578 599.954 477.767C598.696 499.956 599.954 544.433 588.843 555.544L555.51 577.767L488.843 588.878Z" fill="#A57939"/>
    <path d="M214.345 620.878C217.313 605.335 220.855 588.291 224.993 572.986L225.008 572.995C231.541 548.801 166.146 527.944 158.593 495.216C154.562 477.749 148.244 423.907 192 403.5C210.869 394.695 241.233 381.792 266.833 378L286.5 541.5C272.393 573.876 261.319 614.414 263.137 622.29L329.5 678.5L301.38 683C301.38 683 233.467 651.233 219.381 642.697C214.401 639.68 213.294 626.373 214.345 620.878Z" fill="#A57939"/>
    <path d="M563.011 556.522L593.011 585.022C599.956 587.453 647.066 609.134 645.5 622.29C643.07 642.779 653.5 690 653.5 690L677.5 673C677.5 673 691.803 625.922 691.803 614.811C691.803 606.033 688.611 584.611 677.5 573.5C666.389 562.388 601.011 528.522 601.011 528.522" fill="#A57939"/>
    <path d="M555.51 577.767L588.843 555.544C571.277 573.111 555.51 577.767 555.51 577.767Z" fill="#A57939"/>
    <path d="M322 504.148L337.5 516.5L356.283 525.918L396.031 532.5H454.5L463 525.918L466.5 504.148L473.5 453.5V387.701H466.5L454.5 387.702L427.5 384.5L405.472 378.081L356.283 371.5L346.5 370L332.5 368L322 504.148Z" fill="currentColor"/>
    <path d="M500 388.889C511.111 377.778 538.344 339.444 566.667 311.111C577.778 300 600 288.889 600 288.889L622.222 255.556" stroke="black" stroke-width="22.2222" stroke-miterlimit="10" stroke-linecap="round" stroke-linejoin="round"/>
    <path d="M281.061 445.639C281.061 445.639 299.26 475.696 293.332 499.823C286.291 528.497 250.209 600.729 252.663 611.565L290.272 637.225C290.272 637.225 326.111 664.837 327.5 671.677C331.761 692.552 311 690.5 311 690.5C311 690.5 206.291 627.034 207.053 621.895C209.349 606.347 212.7 578.065 216.455 562.802C222.383 538.675 160.838 518.436 153.475 485.926C149.546 468.577 149.587 418.452 190.479 397.799C208.114 388.888 230.16 383.216 254.189 379.398" stroke="black" stroke-width="22.2222" stroke-miterlimit="10" stroke-linecap="round" stroke-linejoin="round"/>
    <path d="M561.918 574.982L591.156 629.024C599.898 642.085 606.059 651.134 602.656 655.524C592.616 668.478 585.5 686.5 571 701C556.5 715.5 557.822 711.637 557.822 711.637C557.822 711.637 540.931 717.616 532.775 711.081C524.64 704.54 523.338 692.627 529.89 684.611C536.462 676.604 557.822 655.524 557.822 655.524" stroke="black" stroke-width="22.2222" stroke-miterlimit="10" stroke-linecap="round" stroke-linejoin="round"/>
    <path d="M455 526C455 526 372.587 530.272 351.33 525.718C330.074 521.164 317.664 516.608 317.162 507.911C316.832 502.213 332.554 397.314 326.206 376.046" stroke="black" stroke-width="22.2222" stroke-miterlimit="10" stroke-linecap="round" stroke-linejoin="round"/>
    <path d="M188 396.869L159.452 393.612C159.452 393.612 79.3621 399.872 77.7277 445.655C76.5381 478.963 112.643 525.102 43.873 563.095" stroke="black" stroke-width="22.2222" stroke-miterlimit="10" stroke-linecap="round" stroke-linejoin="round"/>
    <path d="M462.492 175.971C444.275 175.971 429.507 161.203 429.507 142.986C429.507 124.768 444.275 110 462.492 110C480.71 110 495.478 124.768 495.478 142.986C495.478 161.203 480.71 175.971 462.492 175.971Z" fill="#FCEA2B"/>
    <path d="M400.111 308.958L389 342.291L464.499 431.18L465.573 457.027L415.828 545.235L381.036 526.918L404.792 438.719L311.222 386.736L289 342.291L383.741 205.444L436.599 214.42L429.508 280.203L511.222 311.389C511.222 311.389 502.195 330.486 489.695 328.403C477.195 326.319 423.028 317.639 409.139 303.403L400.111 308.958Z" fill="#FCEA2B"/>
    <path d="M462.492 175.971C444.275 175.971 429.507 161.203 429.507 142.986C429.507 124.768 444.275 110 462.492 110C480.71 110 495.478 124.768 495.478 142.986C495.478 161.203 480.71 175.971 462.492 175.971Z" stroke="black" stroke-width="22.2222" stroke-miterlimit="10"/>
    <path d="M500.111 308.958L443.699 292.839C431.947 289.481 425.079 277.123 428.442 265.37L438.447 230.324C441.81 218.571 434.747 206.999 422.768 204.601L410.788 202.204C398.809 199.806 383.303 206.066 376.348 216.119L301.652 324.019C294.697 334.067 293.47 351.233 298.939 362.17L301.283 366.857C306.752 377.795 319.968 391.597 330.645 397.533L391.8 431.495C402.477 437.43 407.295 451.493 402.498 462.724L381.98 510.748C377.183 521.979 381.796 536.183 392.233 542.291C402.682 548.4 416.138 544.689 422.138 534.045L454.658 476.385C460.658 465.74 465.335 451.21 465.041 444.104C464.738 436.996 458.021 423.564 450.111 414.243L403.388 359.229C395.478 349.908 391.496 334.794 394.556 325.625C397.616 316.456 400.111 308.958 400.111 308.958" stroke="black" stroke-width="22.2222" stroke-miterlimit="10" stroke-linecap="round" stroke-linejoin="round"/>
    <path d="M502.5 589C502.5 589 416.902 586.248 391.227 579.519C363.709 572.303 286 534.487 286 534.487M596.5 521.5C596.5 508.935 597.39 502.932 598.089 480.603C598.719 460.287 618.058 390.719 618.058 390.719C618.058 390.719 662.473 389.594 707.168 399.633C714.827 401.36 735.08 381.52 728.815 376.74C672.179 333.486 672.178 333.486 638.306 312M598 575.313C593.278 571.535 579.802 566.288 574.503 563C553.764 579.202 502 589 502 589M685.367 644.293L684.673 666.282C684.292 678.376 674.762 687.98 663.49 687.625C652.218 687.269 643.243 679.28 643.54 669.859L644.373 643.462M599 523.55C599 523.55 656.873 548.448 669.67 557.386C682.466 566.324 687.364 577.447 688.577 586.115C689.372 591.795 687.516 618.417 685.058 643.479M595.051 574C614.066 583.275 633.766 592.376 637.121 599.423C643.288 612.376 643.473 614.727 643.288 627.144C642.587 629.246 645.149 636.754 645.022 645.253" stroke="black" stroke-width="22.2222" stroke-miterlimit="10" stroke-linecap="round" stroke-linejoin="round"/>
</svg>
