<svg width="800" height="800" viewBox="0 0 800 800" fill="none" xmlns="http://www.w3.org/2000/svg">
    <path d="M286.778 474.222L261.267 547.422L287.922 634.367L311.767 672.333L305.55 692.578L279.561 693.537L247.306 675.259L202.372 562.704L205.779 547.804C205.779 547.804 231.279 477.081 244.501 456.226L286.778 474.222Z" fill="#6A462F"/>
    <path d="M159.667 290.778V358.022L171.111 462.878L146.2 517.444C146.2 517.444 142.074 654.667 57.8112 629.667L72.6445 608.778L95.1667 541.389C95.1667 541.389 96.7534 436.589 96.6722 432.178C96.5911 427.767 103.482 358.044 103.482 358.044L127.238 307.567L159.667 290.778Z" fill="#6A462F"/>
    <path d="M679.889 147.667C667.233 185.356 702.589 213.856 712.333 247.311C732.278 269.444 746.878 320.256 702.434 322.567C680.579 301.444 630.568 276.844 628.19 282.456L612.579 308.344C612.579 308.344 572.223 388.167 571.457 412.667C567.546 455.878 519.501 469.722 504.501 504.878C490.879 554.933 475.846 605.478 473.568 657.655C497.723 686.422 445.634 724.844 437.268 680.989C424.401 640.3 445.36 599.244 444.804 558.1C441.929 532.856 453.333 487.089 436.173 473.622L275.507 471.259L249.773 459.759C249.773 459.759 207.629 512.226 190.662 546.87C181.148 586.481 196.23 626.137 208.296 663.314C221.207 692.114 185.384 715.403 172.362 682.181C156.584 634.248 142.24 584.681 139.984 533.848C148.353 505.792 175.329 497.981 160.54 467.403C136.118 446.281 121.629 391.492 127.307 357.959C131.587 325.137 142.44 286.048 181.762 282.659C248.673 265.237 314.318 303.114 381.429 292.494C416.062 290.753 459.496 295.832 482.573 263.839C508.884 224.628 544.484 189.75 590.496 175.328C619.718 167.687 643.94 138.083 675.929 146.417L679.889 147.667Z" fill="#A57939"/>
    <path d="M557 455.556L549.776 524.6L533.02 558.333L545.609 630.244L556.998 673.611L545.009 691.067L519.92 684.206C519.92 684.206 499.076 665.972 499.076 661.806C499.076 657.639 476.853 581.939 476.853 581.939L498.387 505.25L516.931 475.694L557 455.556Z" fill="#6A462F"/>
    <path d="M618.778 251.333C621.711 291.4 666 289.533 666 289.533L683.456 308.822C697.944 340.222 736.833 318.001 736.833 295.089C720.078 257.144 702.811 231.2 702.811 231.2C704.2 200.178 666.011 179.811 666.011 179.811L680.211 160.122C685.06 153.806 681.009 144.7 673.081 143.956C659.159 142.638 632.914 142.334 622.259 165.922C622.259 165.922 523.759 176.288 467.148 281.811C464.503 286.746 357.403 307.456 288.592 286.723C240.992 272.39 99.1478 263.812 96.5922 403.39C95.2933 474.568 110.503 571.168 63.2811 620.279" stroke="black" stroke-width="22.2222" stroke-miterlimit="10" stroke-linecap="round" stroke-linejoin="round"/>
    <path d="M142.333 411.333C147.249 429.456 155.9 449.4 171.1 462.911C171.1 462.911 158.922 516.089 135.856 538.511L165.967 673.733L177.767 695.144C181.161 701.306 187.639 705.132 194.678 705.132C208.589 705.132 217.967 690.954 212.389 678.21C201.633 653.632 188.389 612.032 185.844 552.654C185.844 552.654 260.533 479.499 253.667 413.988" stroke="black" stroke-width="22.2222" stroke-miterlimit="10" stroke-linecap="round" stroke-linejoin="round"/>
    <path d="M602.444 305.444L572.8 368.033C572.8 368.033 585.611 438.511 536.278 469.9L509.367 487.2L481.444 589.8L471.259 665.722L476.636 679.2C481.576 691.578 472.457 705.033 459.124 705.033C451.207 705.033 444.136 700.084 441.413 692.644L433.119 669.922C430.451 662.616 429.801 654.722 431.237 647.078L446.026 568.311L447.8 471.822C447.8 471.822 367.344 495.611 288.689 465.134" stroke="black" stroke-width="22.2222" stroke-miterlimit="10" stroke-linecap="round" stroke-linejoin="round"/>
    <path d="M538.778 524.556L532.072 573.667L551.406 654.633L555.486 664.847C560.841 678.258 550.966 692.836 536.53 692.836C528.38 692.836 521.008 687.989 517.786 680.502L509.009 660.158" stroke="black" stroke-width="22.2222" stroke-miterlimit="10" stroke-linecap="round" stroke-linejoin="round"/>
    <path d="M256.667 669.556L272.8 687.911C277.443 693.194 284.589 695.534 291.467 694.017C305.056 691.016 311.144 675.15 302.944 663.906C287.144 642.228 265.233 604.461 249.933 547.017C249.933 547.017 259.986 523.317 269 491.839" stroke="black" stroke-width="22.2222" stroke-miterlimit="10" stroke-linecap="round" stroke-linejoin="round"/>
    <path d="M280.167 409.847V427.347L317.913 448.088L364.9 455.611L404.463 453.896L434.016 448.088L442.429 301.347H434.016H404.463L390.5 297.5L376.059 279.132L317.913 271.611L306.348 269.896L289.799 267.611L280.167 409.847Z" fill="currentColor"/>
    <path d="M385.667 444.847C385.667 444.847 323.209 444.263 305.76 439.648C288.31 435.033 278.106 430.496 277.617 422.041C277.296 416.501 289.236 314.711 283.848 293.988" stroke="black" stroke-width="22.2222" stroke-miterlimit="10" stroke-linecap="round" stroke-linejoin="round"/>
    <path d="M430.27 82.971C412.053 82.971 397.285 68.203 397.285 49.986C397.285 31.768 412.053 17 430.27 17C448.488 17 463.256 31.768 463.256 49.986C463.256 68.203 448.488 82.971 430.27 82.971Z" fill="#FCEA2B"/>
    <path d="M367.889 215.958L356.778 249.291L432.277 338.18L433.351 364.027L383.606 452.235L348.814 433.918L372.57 345.719L279 293.736L256.778 249.291L351.519 112.444L404.377 121.42L397.286 187.203L479 218.389C479 218.389 469.973 237.486 457.473 235.403C444.973 233.319 390.806 224.639 376.917 210.403L367.889 215.958Z" fill="#FCEA2B"/>
    <path d="M430.27 82.971C412.053 82.971 397.285 68.203 397.285 49.986C397.285 31.768 412.053 17 430.27 17C448.488 17 463.256 31.768 463.256 49.986C463.256 68.203 448.488 82.971 430.27 82.971Z" stroke="black" stroke-width="22.2222" stroke-miterlimit="10"/>
    <path d="M467.889 215.958L411.477 199.839C399.725 196.481 392.857 184.123 396.22 172.37L406.225 137.324C409.588 125.571 402.525 113.999 390.546 111.601L378.566 109.204C366.587 106.806 351.081 113.066 344.126 123.119L269.43 231.019C262.475 241.067 261.248 258.233 266.717 269.17L269.061 273.857C274.53 284.795 287.746 298.597 298.423 304.533L359.578 338.495C370.255 344.43 375.073 358.493 370.276 369.724L349.758 417.748C344.961 428.979 349.574 443.183 360.011 449.291C370.46 455.4 383.916 451.689 389.916 441.045L422.436 383.385C428.436 372.74 433.113 358.21 432.819 351.104C432.516 343.996 425.799 330.564 417.889 321.243L371.166 266.229C363.256 256.908 359.274 241.794 362.334 232.625C365.394 223.456 367.889 215.958 367.889 215.958" stroke="black" stroke-width="22.2222" stroke-miterlimit="10" stroke-linecap="round" stroke-linejoin="round"/>
</svg>
