<svg width="632" height="616" viewBox="0 0 632 616" fill="none" xmlns="http://www.w3.org/2000/svg">
    <path d="M481.173 9.17224L462.654 88.8022L521.913 148.061L614.506 307.32L603.394 359.172L579.32 373.987L534.876 372.134L495.987 335.098L420.061 314.728C420.061 314.728 405.247 331.394 395.987 348.061C386.727 364.728 355.246 394.358 355.246 394.358L349.69 461.024L370.06 529.543L392.282 561.024C392.282 561.024 147.838 666.58 23.7634 483.247L29.3189 416.58L49.6889 361.024L86.7256 303.617L97.8367 286.95L99.6889 229.542L131.17 170.283L186.726 136.95L216.356 86.95L273.763 40.6534L345.986 23.9867L408.949 35.0978L455.246 11.0234L481.173 9.17224Z" fill="#A57939"/>
    <path d="M14.9934 582.904C25.6945 556.409 21.4034 520.334 16.6079 500.877C13.6879 489.03 13.0356 476.692 15.0767 464.663C31.5112 367.856 92.8356 296.671 92.8356 296.671L97.5078 316.75C85.5667 244.231 121.451 191.116 121.451 191.116L179.323 145.616L180.629 152.333C205.975 79.48 292.285 41.3067 292.285 41.3067L411.927 39.7933L384.591 84.9667L320.236 108.079L280.989 139.649L255.699 187.564L252.552 241.93L268.296 304.626L271.916 371.671L254.323 424.607C228.535 503.67 167.966 505.544 149.696 504.206L149.291 512.934C149.235 514.126 149.092 515.339 148.828 516.501C137.573 565.837 76.0789 597.823 34.8634 606.363C21.2389 609.188 9.78339 595.806 14.9934 582.904ZM153.529 435.512C152.784 434.297 152.011 433.039 151.116 431.578C151.963 432.959 152.767 434.269 153.529 435.512ZM155.233 488.112L150.248 492.259L150.095 495.56C151.836 493.081 153.623 490.61 155.233 488.112ZM159.344 444.992C159.986 446.037 160.036 446.12 159.344 444.992ZM159.117 444.621C158.417 443.479 157.139 441.397 155.3 438.399C157.022 441.207 158.349 443.37 159.117 444.621ZM109.141 364.013L133.231 408.619C130.783 402.18 128.136 395.696 125.072 389.118C114.94 372.601 107.873 356.457 103.14 340.958L107.493 359.666C107.847 361.181 108.4 362.643 109.141 364.013ZM148.78 427.767C147.911 426.348 146.975 424.823 145.985 423.211C146.939 424.766 147.868 426.281 148.78 427.767ZM139.913 413.312C138.376 410.804 136.722 408.109 134.971 405.256C136.544 407.82 138.207 410.53 139.913 413.312ZM130.357 397.732C129.676 396.622 128.95 395.439 128.241 394.284C128.867 395.306 129.589 396.481 130.357 397.732Z" fill="#6A462F"/>
    <path d="M98.39 295.646C78.7456 321.887 25.6667 369.891 31.2222 476.07" stroke="black" stroke-width="22.2222" stroke-miterlimit="10" stroke-linecap="round" stroke-linejoin="round"/>
    <path d="M386.778 341.231C386.778 341.231 292.574 416.59 386.778 549.728" stroke="black" stroke-width="22.2222" stroke-miterlimit="10" stroke-linecap="round" stroke-linejoin="round"/>
    <path d="M356.82 218.833C350.721 311.672 460.403 326.644 489.642 333.663C493.337 334.55 496.662 336.441 499.349 339.129L524.046 363.825C527.928 367.708 533.194 369.89 538.686 369.89H577.709C591.076 369.89 602.943 361.337 607.17 348.655L613.07 330.954C615.937 322.354 614.902 312.93 610.238 305.157L512.613 142.45L460.127 89.9633L483.628 13.2366C483.628 13.2366 396.932 5.4733 390.144 72.4677C390.144 72.4677 202.054 99.5988 272.888 287.834C272.888 287.834 290.943 353.933 246.499 412.108" stroke="black" stroke-width="22.2222" stroke-miterlimit="10" stroke-linecap="round" stroke-linejoin="round"/>
    <path d="M404.37 31.6255C404.37 31.6255 157.21 -13.05 182.611 253.384" stroke="black" stroke-width="22.2222" stroke-miterlimit="10" stroke-linecap="round" stroke-linejoin="round"/>
    <path d="M193.237 133.115C193.237 133.115 29.1644 206.299 132.611 380.004C132.611 380.004 192.333 452.921 125.667 531.162" stroke="black" stroke-width="22.2222" stroke-miterlimit="10" stroke-linecap="round" stroke-linejoin="round"/>
    <path d="M476.592 219.51C464.319 219.51 454.37 209.561 454.37 197.288C454.37 185.015 464.319 175.066 476.592 175.066C488.865 175.066 498.814 185.015 498.814 197.288C498.814 209.561 488.865 219.51 476.592 219.51Z" fill="black"/>
</svg>
